<?xml version="1.0" encoding="UTF-8"?>
<svg width="458px" height="88px" viewBox="0 0 458 88" version="1.1" xmlns="http://www.w3.org/2000/svg" xmlns:xlink="http://www.w3.org/1999/xlink">
    <title>Lockups/Vertical/Cornell Tech</title>
    <defs>
        <path d="M165.561911,50.100058 C172.504428,50.100058 177.936817,54.0791884 179.242117,61.878029 L171.878494,61.878029 C171.148239,58.8936812 169.269167,56.5903768 165.614072,56.5903768 C163.630678,56.5903768 162.011139,57.3237101 160.966644,58.5289275 C159.583619,60.0705278 159.155833,61.8110137 159.140183,68.6515996 L159.139733,69.051942 C159.139733,76.222029 159.557022,78.0037101 160.966644,79.5711304 C162.011139,80.7763478 163.630678,81.5096812 165.614072,81.5096812 C169.269167,81.5096812 171.148239,79.2063768 171.878494,76.222029 L179.242117,76.222029 C177.936817,84.0234203 172.456083,88 165.561911,88 C161.486983,88 158.146128,86.5346087 155.5368,83.9188406 C152.111554,80.4839781 151.891575,76.311196 151.879532,70.727203 L151.879532,67.3758066 C151.891575,61.7893053 152.111554,57.618744 155.5368,54.1850435 C158.146128,51.5654493 161.486983,50.100058 165.561911,50.100058 Z M191.5127,50.4150725 L191.5127,65.6467246 L204.097522,65.6467246 L204.097522,50.4150725 L211.35555,50.4150725 L211.35555,87.6875362 L204.097522,87.6875362 L204.097522,72.0847536 L191.5127,72.0847536 L191.5127,87.6875362 L184.254672,87.6875362 L184.254672,50.4150725 L191.5127,50.4150725 Z M118.499867,50.4150725 L118.499867,56.9053913 L108.78645,56.9053913 L108.78645,87.6875362 L101.525878,87.6875362 L101.525878,56.9053913 L91.8124611,56.9053913 L91.8124611,50.4150725 L118.499867,50.4150725 Z M147.778789,50.4163478 L147.778789,56.9028406 L130.545267,56.9028406 L130.545267,65.648 L145.221622,65.648 L145.221622,72.1383188 L130.545267,72.1383188 L130.545267,81.1946667 L147.778789,81.1946667 L147.778789,87.6849855 L123.288511,87.6849855 L123.288511,50.4163478 L147.778789,50.4163478 Z M231.8458,0.496115942 L231.8458,87.6824348 L230.540823,87.6824348 L230.540823,0.496115942 L231.8458,0.496115942 Z M315.016217,62.4136812 L315.016217,72.3155942 C315.016217,74.0692174 316.041628,75.1162899 317.639539,75.1162899 C319.239994,75.1162899 320.285761,74.0692174 320.285761,72.3155942 L320.285761,62.4136812 L323.229683,62.4136812 L323.229683,72.4227246 C323.229683,75.651942 320.755211,77.7690435 317.639539,77.7690435 C314.525139,77.7690435 312.050667,75.651942 312.050667,72.4227246 L312.050667,62.4136812 L315.016217,62.4136812 Z M273.508694,62.2848696 C275.598956,62.2848696 277.114172,62.7975652 278.414383,64.0601739 L276.537856,65.9209275 C275.598956,65.0013913 274.425967,64.8725797 273.423456,64.8725797 C271.843356,64.8725797 271.096561,65.750029 271.096561,66.7983768 C271.096561,67.203942 271.203428,67.5891014 271.524028,67.8875362 C271.823,68.1668406 272.270822,68.3798261 272.91075,68.4665507 L274.723667,68.7433043 C276.111661,68.9358841 276.965322,69.2993623 277.625606,69.9408696 C278.436011,70.6895072 278.798594,71.7812174 278.798594,73.1496812 C278.798594,76.1008696 276.367378,77.7690435 273.166467,77.7690435 C270.862472,77.7690435 269.113167,77.2767536 267.619578,75.7590725 L269.540633,73.8345507 C270.499889,74.7961739 271.801372,75.1162899 273.188094,75.1162899 C274.959028,75.1162899 275.897928,74.4326957 275.897928,73.2134493 C275.897928,72.7007536 275.749078,72.2722319 275.428478,71.9521159 C275.129506,71.674087 274.830533,71.5452754 274.062111,71.4381449 L272.250467,71.1613913 C270.905728,70.9688116 269.987183,70.561971 269.305272,69.8987826 C268.580106,69.1922319 268.217522,68.1872464 268.217522,66.9042319 C268.217522,64.1889855 270.222544,62.2848696 273.508694,62.2848696 Z M250.098533,62.4136812 L250.098533,77.6415072 L247.132983,77.6415072 L247.132983,62.4136812 L250.098533,62.4136812 Z M296.384522,62.4136812 L296.384522,77.6415072 L293.418972,77.6415072 L293.418972,62.4136812 L296.384522,62.4136812 Z M336.398456,62.4136812 L336.398456,65.0651594 L332.429122,65.0651594 L332.429122,77.6415072 L329.463572,77.6415072 L329.463572,65.0651594 L325.495511,65.0651594 L325.495511,62.4136812 L336.398456,62.4136812 Z M309.786111,62.4136812 L309.786111,65.0651594 L305.816778,65.0651594 L305.816778,77.6415072 L302.851228,77.6415072 L302.851228,65.0651594 L298.883167,65.0651594 L298.883167,62.4136812 L309.786111,62.4136812 Z M256.373133,62.4136812 L262.389472,71.7378551 L262.389472,62.4136812 L265.355022,62.4136812 L265.355022,77.6415072 L262.710072,77.6415072 L256.692461,68.2943768 L256.692461,77.6415072 L253.726911,77.6415072 L253.726911,62.4136812 L256.373133,62.4136812 Z M290.920328,62.4136812 L290.920328,65.0651594 L286.952267,65.0651594 L286.952267,77.6415072 L283.986717,77.6415072 L283.986717,65.0651594 L280.018656,65.0651594 L280.018656,62.4136812 L290.920328,62.4136812 Z M348.903128,62.4136812 L348.903128,65.0651594 L341.861378,65.0651594 L341.861378,68.6374493 L347.856089,68.6374493 L347.856089,71.2889275 L341.861378,71.2889275 L341.861378,74.9887536 L348.903128,74.9887536 L348.903128,77.6415072 L338.895828,77.6415072 L338.895828,62.4136812 L348.903128,62.4136812 Z M379.48735,36.1373913 C381.236656,36.1373913 382.517783,36.7151304 383.54065,37.7417971 C384.999748,39.2032678 385.093899,40.8445 385.098872,43.5617597 L385.099122,43.8801159 C385.099122,46.787942 385.055867,48.4994783 383.54065,50.0171594 C382.517783,51.0451014 381.236656,51.6215652 379.48735,51.6215652 C377.738044,51.6215652 376.436561,51.0451014 375.413694,50.0171594 C373.953372,48.5556887 373.88041,46.9144566 373.877009,44.1983357 L373.87685,43.8801159 C373.87685,40.9710145 373.897206,39.2594783 375.413694,37.7417971 C376.436561,36.7151304 377.738044,36.1373913 379.48735,36.1373913 Z M327.372039,36.1373913 C329.121344,36.1373913 330.402472,36.7151304 331.425339,37.7417971 C332.940556,39.2594783 332.983811,40.9710145 332.983811,43.8801159 C332.983811,46.787942 332.940556,48.4994783 331.425339,50.0171594 C330.402472,51.0451014 329.121344,51.6215652 327.372039,51.6215652 C325.622733,51.6215652 324.32125,51.0451014 323.298383,50.0171594 C321.838061,48.5556887 321.765099,46.9144566 321.761698,44.1983357 L321.761539,43.8801159 C321.761539,40.9710145 321.781894,39.2594783 323.298383,37.7417971 C324.32125,36.7151304 325.622733,36.1373913 327.372039,36.1373913 Z M366.169728,36.1373913 C369.006783,36.1373913 371.183556,37.7622029 371.738244,40.9493333 L368.709083,40.9493333 C368.410111,39.7096812 367.641689,38.7901449 366.169728,38.7901449 C365.359322,38.7901449 364.697767,39.0885797 364.271572,39.5808696 C363.736011,40.2002559 363.538458,40.9195117 363.52547,43.586797 L363.524778,43.8801159 C363.524778,46.787942 363.716883,47.5365797 364.271572,48.178087 C364.697767,48.6703768 365.359322,48.970087 366.169728,48.970087 C367.641689,48.970087 368.431739,48.0505507 368.730711,46.8096232 L371.738244,46.8096232 C371.183556,49.9967536 368.986428,51.6215652 366.169728,51.6215652 C364.420422,51.6215652 363.140567,51.0451014 362.096072,50.0171594 C360.63575,48.5556887 360.562788,46.9144566 360.559387,44.1983357 L360.559228,43.8801159 C360.559228,40.9710145 360.579583,39.2594783 362.096072,37.7417971 C363.140567,36.7151304 364.420422,36.1373913 366.169728,36.1373913 Z M277.498383,36.1373913 C280.335439,36.1373913 282.512211,37.7622029 283.0669,40.9493333 L280.037739,40.9493333 C279.737494,39.7096812 278.970344,38.7901449 277.498383,38.7901449 C276.687978,38.7901449 276.02515,39.0885797 275.598956,39.5808696 C275.045539,40.2223768 274.853433,40.9710145 274.853433,43.8801159 C274.853433,46.787942 275.045539,47.5365797 275.598956,48.178087 C276.02515,48.6703768 276.687978,48.970087 277.498383,48.970087 C278.970344,48.970087 279.760394,48.0505507 280.058094,46.8096232 L283.0669,46.8096232 C282.512211,49.9967536 280.315083,51.6215652 277.498383,51.6215652 C275.749078,51.6215652 274.469222,51.0451014 273.424728,50.0171594 C271.964405,48.5556887 271.891443,46.9144566 271.888042,44.1983357 L271.887883,43.8801159 C271.887883,40.9710145 271.908239,39.2594783 273.424728,37.7417971 C274.469222,36.7151304 275.749078,36.1373913 277.498383,36.1373913 Z M288.682489,36.2662029 L288.682489,42.4886957 L293.824811,42.4886957 L293.824811,36.2662029 L296.789089,36.2662029 L296.789089,51.494029 L293.824811,51.494029 L293.824811,45.1197681 L288.682489,45.1197681 L288.682489,51.494029 L285.716939,51.494029 L285.716939,36.2662029 L288.682489,36.2662029 Z M445.836283,36.2662029 L445.836283,48.8412754 L452.727911,48.8412754 L452.727911,51.494029 L442.870733,51.494029 L442.870733,36.2662029 L445.836283,36.2662029 Z M318.644594,36.2662029 L318.644594,51.494029 L315.679044,51.494029 L315.679044,36.2662029 L318.644594,36.2662029 Z M256.90365,36.2662029 L256.90365,38.9176812 L252.935589,38.9176812 L252.935589,51.494029 L249.970039,51.494029 L249.970039,38.9176812 L246.001978,38.9176812 L246.001978,36.2662029 L256.90365,36.2662029 Z M394.168794,36.2662029 C397.261567,36.2662029 399.097383,38.3833043 399.097383,40.9276522 C399.097383,43.0677101 397.794628,44.3928116 396.323939,44.9271884 L399.715683,51.494029 L396.280683,51.494029 L393.315133,45.4194783 L391.181617,45.4194783 L391.181617,51.494029 L388.216067,51.494029 L388.216067,36.2662029 L394.168794,36.2662029 Z M303.066233,36.2662029 L309.082572,45.5903768 L309.082572,36.2662029 L312.048122,36.2662029 L312.048122,51.494029 L309.403172,51.494029 L303.385561,42.1468986 L303.385561,51.494029 L300.420011,51.494029 L300.420011,36.2662029 L303.066233,36.2662029 Z M433.479189,36.2662029 L433.479189,48.8412754 L440.370817,48.8412754 L440.370817,51.494029 L430.513639,51.494029 L430.513639,36.2662029 L433.479189,36.2662029 Z M404.905078,36.2662029 L410.921417,45.5903768 L410.921417,36.2662029 L413.886967,36.2662029 L413.886967,51.494029 L411.242017,51.494029 L405.224406,42.1468986 L405.224406,51.494029 L402.258856,51.494029 L402.258856,36.2662029 L404.905078,36.2662029 Z M427.523917,36.2662029 L427.523917,38.9176812 L420.483439,38.9176812 L420.483439,42.4886957 L426.47815,42.4886957 L426.47815,45.1414493 L420.483439,45.1414493 L420.483439,48.8412754 L427.523917,48.8412754 L427.523917,51.494029 L417.517889,51.494029 L417.517889,36.2662029 L427.523917,36.2662029 Z M269.409594,36.2662029 L269.409594,38.9176812 L262.369117,38.9176812 L262.369117,42.4886957 L268.363828,42.4886957 L268.363828,45.1414493 L262.369117,45.1414493 L262.369117,48.8412754 L269.409594,48.8412754 L269.409594,51.494029 L259.403567,51.494029 L259.403567,36.2662029 L269.409594,36.2662029 Z M338.74825,36.2662029 L344.764589,45.5903768 L344.764589,36.2662029 L347.730139,36.2662029 L347.730139,51.494029 L345.085189,51.494029 L339.067578,42.1468986 L339.067578,51.494029 L336.102028,51.494029 L336.102028,36.2662029 L338.74825,36.2662029 Z M379.48735,38.7901449 C378.676944,38.7901449 378.014117,39.1102609 377.567567,39.6025507 C377.011606,40.244058 376.8424,40.9710145 376.8424,43.8801159 C376.8424,46.787942 377.011606,47.4944928 377.567567,48.136 C378.014117,48.6270145 378.676944,48.970087 379.48735,48.970087 C380.297756,48.970087 380.959311,48.6270145 381.386778,48.136 C381.921111,47.5166137 382.119808,46.8365923 382.132876,44.1731608 L382.133572,43.8801159 C382.133572,40.9710145 381.940194,40.244058 381.386778,39.6025507 C380.959311,39.1102609 380.297756,38.7901449 379.48735,38.7901449 Z M327.372039,38.7901449 C326.561633,38.7901449 325.900078,39.1102609 325.452256,39.6025507 C324.916694,40.221937 324.739303,40.9209812 324.727706,43.5868726 L324.727089,43.8801159 C324.727089,46.787942 324.897567,47.4944928 325.452256,48.136 C325.900078,48.6270145 326.561633,48.970087 327.372039,48.970087 C328.183717,48.970087 328.844,48.6270145 329.271467,48.136 C329.826156,47.4944928 330.018261,46.787942 330.018261,43.8801159 C330.018261,40.9710145 329.826156,40.244058 329.271467,39.6025507 C328.844,39.1102609 328.183717,38.7901449 327.372039,38.7901449 Z M357.420656,42.5971014 L357.420656,45.1848116 L350.849628,45.1848116 L350.849628,42.5971014 L357.420656,42.5971014 Z M393.976689,38.9176812 L391.181617,38.9176812 L391.181617,42.9388986 L393.976689,42.9388986 C395.278172,42.9388986 396.131833,42.1048116 396.131833,40.9276522 C396.131833,39.7517681 395.278172,38.9176812 393.976689,38.9176812 Z M13.68275,0.184927536 C20.6265389,0.184927536 26.0576556,4.16405797 27.3629556,11.9616232 L19.9993333,11.9616232 C19.2690778,8.97855072 17.3900056,6.6777971 13.7349111,6.6777971 C11.7527889,6.6777971 10.13325,7.40730435 9.08748333,8.6137971 C7.70445776,10.154146 7.27789691,11.8946083 7.26229263,18.7351938 L7.26184444,19.1355362 C7.26184444,26.3068986 7.67786111,28.0873043 9.08748333,29.6547246 C10.13325,30.8612174 11.7527889,31.5945507 13.7349111,31.5945507 C17.3900056,31.5945507 19.2690778,29.289971 19.9993333,26.3068986 L27.3629556,26.3068986 C26.0576556,34.1082899 20.5769222,38.0835942 13.68275,38.0835942 C9.60782222,38.0835942 6.26823889,36.6182029 3.65891111,34.0024348 C0.232505679,30.5687343 0.012424428,26.3949968 0.000371705289,20.8108247 L0.000371705289,17.4597106 C0.012424428,11.8741648 0.232505679,7.70350016 3.65891111,4.26863768 C6.26823889,1.65031884 9.60782222,0.184927536 13.68275,0.184927536 Z M44.9323444,0.186202899 C49.1612111,0.186202899 52.3481278,1.6515942 54.9574556,4.26736232 C58.7168722,8.03733333 58.6647111,12.6975072 58.6647111,19.1342609 C58.6647111,25.5722899 58.7168722,30.2324638 54.9574556,34.0011594 C52.3481278,36.6207536 49.1612111,38.0823188 44.9323444,38.0823188 C40.7009333,38.0823188 37.4644,36.6207536 34.8525278,34.0011594 C31.4261223,30.5674589 31.2092094,26.3937214 31.1977199,20.8095494 L31.1977199,17.4592822 C31.2092094,11.8760656 31.4261223,7.7022248 34.8525278,4.26736232 C37.4644,1.6515942 40.7009333,0.186202899 44.9323444,0.186202899 Z M102.887156,0.498666667 L117.611856,23.3212754 L117.611856,0.498666667 L124.869883,0.498666667 L124.869883,37.7711304 L118.391728,37.7711304 L103.669572,14.8924058 L103.669572,37.7711304 L96.4128167,37.7711304 L96.4128167,0.498666667 L102.887156,0.498666667 Z M78.2454833,0.498666667 C85.81775,0.498666667 90.30615,5.68046377 90.30615,11.9106087 C90.30615,17.145971 87.12305,20.3892174 83.5201167,21.7002899 L91.8239111,37.7698551 L83.4157944,37.7698551 L76.1577667,22.9029565 L70.9352944,22.9029565 L70.9352944,37.7698551 L63.6772667,37.7698551 L63.6772667,0.498666667 L78.2454833,0.498666667 Z M197.20335,0.499942029 L197.20335,31.2782609 L214.0692,31.2782609 L214.0692,37.7685797 L189.945322,37.7685797 L189.945322,0.499942029 L197.20335,0.499942029 Z M168.920578,0.499942029 L168.920578,31.2782609 L185.786428,31.2782609 L185.786428,37.7685797 L161.66255,37.7685797 L161.66255,0.499942029 L168.920578,0.499942029 Z M155.894294,0.499942029 L155.894294,6.99026087 L138.660772,6.99026087 L138.660772,15.7341449 L153.337128,15.7341449 L153.337128,22.221913 L138.660772,22.221913 L138.660772,31.2782609 L155.894294,31.2782609 L155.894294,37.7685797 L131.402744,37.7685797 L131.402744,0.499942029 L155.894294,0.499942029 Z M44.9323444,6.67652174 C42.9464056,6.67652174 41.27725,7.46214493 40.2314833,8.66481159 C38.8484578,10.2064118 38.4684342,11.8990178 38.4545861,18.7341834 L38.4541889,19.1342609 C38.4541889,26.3056232 38.8218611,28.0337391 40.2314833,29.6049855 C41.27725,30.8076522 42.9464056,31.5932754 44.9323444,31.5932754 C46.9157389,31.5932754 48.5352778,30.8076522 49.5772278,29.6049855 C50.9602534,28.0633853 51.3904882,26.3707793 51.4062311,19.5344092 L51.4066833,19.1342609 C51.4066833,11.9641739 50.98685,10.236058 49.5772278,8.66481159 C48.5352778,7.46214493 46.9157389,6.67652174 44.9323444,6.67652174 Z M452.241922,9.98991304 C454.333456,9.98991304 455.8474,10.5026087 457.148883,11.7652174 L455.271083,13.625971 C454.333456,12.7051594 453.159194,12.5776232 452.156683,12.5776232 C450.577856,12.5776232 449.831061,13.4537971 449.831061,14.5021449 C449.831061,14.9077101 449.937928,15.2928696 450.258528,15.5925797 C450.556228,15.8706087 451.005322,16.0848696 451.643978,16.1703188 L453.458167,16.4483478 C454.844889,16.6409275 455.69855,17.0044058 456.360106,17.645913 C457.169239,18.3945507 457.531822,19.4849855 457.531822,20.8547246 C457.531822,23.805913 455.100606,25.474087 451.900967,25.474087 C449.5957,25.474087 447.846394,24.9817971 446.352806,23.4628406 L448.273861,21.5383188 C449.233117,22.5012174 450.5346,22.8213333 451.921322,22.8213333 C453.692256,22.8213333 454.631156,22.1364638 454.631156,20.9184928 C454.631156,20.4057971 454.482306,19.9772754 454.161706,19.6571594 C453.864006,19.3778551 453.563761,19.2503188 452.796611,19.1431884 L450.983694,18.8651594 C449.638956,18.6725797 448.721683,18.2657391 448.0385,17.6038261 C447.313333,16.8972754 446.95075,15.8922899 446.95075,14.6092754 C446.95075,11.8927536 448.955772,9.98991304 452.241922,9.98991304 Z M389.306361,10.1174493 L389.306361,20.3407536 C389.306361,23.6987826 386.768278,25.474087 383.951578,25.474087 C382.309139,25.474087 381.179406,25.0455652 380.0484,23.9130435 L382.010167,21.9668406 C382.501244,22.4578551 382.970694,22.8213333 383.951578,22.8213333 C385.403183,22.8213333 386.340811,21.9668406 386.340811,20.2132174 L386.340811,10.1174493 L389.306361,10.1174493 Z M411.543533,9.98991304 C414.380589,9.98991304 416.557361,11.6147246 417.11205,14.8018551 L414.082889,14.8018551 C413.783917,13.5609275 413.015494,12.6413913 411.543533,12.6413913 C410.733128,12.6413913 410.071572,12.9411014 409.645378,13.4333913 C409.090689,14.0748986 408.898583,14.8235362 408.898583,17.7313623 C408.898583,20.6404638 409.090689,21.3891014 409.645378,22.0306087 C410.071572,22.5228986 410.733128,22.8213333 411.543533,22.8213333 C413.015494,22.8213333 413.805544,21.9017971 414.104517,20.6621449 L417.11205,20.6621449 C416.557361,23.848 414.360233,25.474087 411.543533,25.474087 C409.794228,25.474087 408.514372,24.8963478 407.469878,23.8696812 C406.009555,22.4069823 405.936593,20.7668873 405.933192,18.0497135 L405.933033,17.7313623 C405.933033,14.8235362 405.953389,13.112 407.469878,11.5930435 C408.514372,10.5663768 409.794228,9.98991304 411.543533,9.98991304 Z M424.861156,9.98991304 C426.610461,9.98991304 427.891589,10.5663768 428.914456,11.5930435 C430.429672,13.112 430.472928,14.8235362 430.472928,17.7313623 C430.472928,20.6404638 430.429672,22.3507246 428.914456,23.8696812 C427.891589,24.8963478 426.610461,25.474087 424.861156,25.474087 C423.11185,25.474087 421.810367,24.8963478 420.7875,23.8696812 C419.271011,22.3507246 419.250656,20.6404638 419.250656,17.7313623 C419.250656,14.8235362 419.271011,13.112 420.7875,11.5930435 C421.810367,10.5663768 423.11185,9.98991304 424.861156,9.98991304 Z M314.059506,10.4082319 C315.595078,10.4082319 316.818956,10.9502609 317.732411,11.8646957 C319.121678,13.2586667 319.226,14.548058 319.226,17.9392464 C319.226,21.3304348 319.121678,22.6198261 317.732411,24.0137971 C316.818956,24.9295072 315.595078,25.4702609 314.059506,25.4702609 C312.522661,25.4702609 311.277156,24.9295072 310.364972,24.0137971 C308.974433,22.6198261 308.890467,21.3304348 308.890467,17.9392464 C308.890467,14.548058 308.974433,13.2586667 310.364972,11.8646957 C311.277156,10.9502609 312.522661,10.4082319 314.059506,10.4082319 Z M266.442772,10.4082319 C267.978344,10.4082319 269.202222,10.9502609 270.115678,11.8646957 C271.459865,13.212201 271.602155,14.4619824 271.610147,17.6070518 L271.610539,17.9392464 C271.610539,21.3304348 271.506217,22.6198261 270.115678,24.0137971 C269.202222,24.9295072 267.978344,25.4702609 266.442772,25.4702609 C264.905928,25.4702609 263.661694,24.9295072 262.748239,24.0137971 C261.404051,22.6662918 261.281972,21.4165104 261.275327,18.2714409 L261.275006,17.9392464 C261.275006,14.548058 261.3577,13.2586667 262.748239,11.8646957 C263.661694,10.9502609 264.905928,10.4082319 266.442772,10.4082319 Z M249.076939,10.5332174 L249.076939,17.1689275 L256.0907,17.1689275 L256.0907,10.5332174 L257.668256,10.5332174 L257.668256,25.3452754 L256.0907,25.3452754 L256.0907,18.5845797 L249.076939,18.5845797 L249.076939,25.3452754 L247.499383,25.3452754 L247.499383,10.5332174 L249.076939,10.5332174 Z M301.217694,10.5332174 L301.217694,11.9475942 L293.622528,11.9475942 L293.622528,17.1689275 L300.096867,17.1689275 L300.096867,18.5845797 L293.622528,18.5845797 L293.622528,23.9308986 L301.217694,23.9308986 L301.217694,25.3452754 L292.044972,25.3452754 L292.044972,10.5332174 L301.217694,10.5332174 Z M276.796117,10.5332174 L281.610206,21.0396522 L286.300889,10.5332174 L287.877172,10.5332174 L287.877172,25.3452754 L286.300889,25.3452754 L286.300889,14.0902029 L282.25395,23.0151884 L280.904122,23.0151884 L276.796117,14.0902029 L276.796117,25.3452754 L275.218561,25.3452754 L275.218561,10.5332174 L276.796117,10.5332174 Z M398.931994,10.1174493 L404.478883,25.3452754 L401.386111,25.3452754 L400.489194,22.6504348 L395.091156,22.6504348 L394.175156,25.3452754 L391.081111,25.3452754 L396.606372,10.1174493 L398.931994,10.1174493 Z M374.08295,10.5332174 L374.08295,11.9475942 L366.487783,11.9475942 L366.487783,17.1689275 L372.962122,17.1689275 L372.962122,18.5845797 L366.487783,18.5845797 L366.487783,23.9308986 L374.08295,23.9308986 L374.08295,25.3452754 L364.910228,25.3452754 L364.910228,10.5332174 L374.08295,10.5332174 Z M439.692722,10.1174493 C442.658272,10.1174493 444.38595,11.7856232 444.38595,14.3950145 C444.38595,16.0848696 443.276572,17.1753043 442.509422,17.540058 C443.426694,17.9673043 444.599683,18.9289275 444.599683,20.9618551 C444.599683,23.805913 442.658272,25.3452754 439.948439,25.3452754 L433.591144,25.3452754 L433.591144,10.1174493 L439.692722,10.1174493 Z M347.9197,10.5332174 L347.9197,11.9475942 L343.645033,11.9475942 L343.645033,25.3452754 L342.06875,25.3452754 L342.06875,11.9475942 L337.792811,11.9475942 L337.792811,10.5332174 L347.9197,10.5332174 Z M332.006744,10.5332174 L332.006744,11.9475942 L324.41285,11.9475942 L324.41285,17.3984928 L330.887189,17.3984928 L330.887189,18.8128696 L324.41285,18.8128696 L324.41285,25.3452754 L322.834022,25.3452754 L322.834022,10.5332174 L332.006744,10.5332174 Z M352.151111,10.5332174 L352.151111,17.1689275 L359.166144,17.1689275 L359.166144,10.5332174 L360.742428,10.5332174 L360.742428,25.3452754 L359.166144,25.3452754 L359.166144,18.5845797 L352.151111,18.5845797 L352.151111,25.3452754 L350.573556,25.3452754 L350.573556,10.5332174 L352.151111,10.5332174 Z M266.442772,11.8238841 C265.446622,11.8238841 264.573878,12.1771594 263.889422,12.8633043 C262.955611,13.8198261 262.852561,14.9026087 262.852561,17.9392464 C262.852561,20.9771594 262.955611,22.0586667 263.889422,23.0151884 C264.573878,23.7013333 265.446622,24.0558841 266.442772,24.0558841 C267.43765,24.0558841 268.310394,23.7013333 268.99485,23.0151884 C269.928661,22.0586667 270.032983,20.9771594 270.032983,17.9392464 C270.032983,14.9026087 269.928661,13.8198261 268.99485,12.8633043 C268.310394,12.1771594 267.43765,11.8238841 266.442772,11.8238841 Z M314.059506,11.8238841 C313.063356,11.8238841 312.190611,12.1771594 311.506156,12.8633043 C310.604545,13.7868426 310.477389,14.8280842 310.469692,17.6320063 L310.469294,17.9392464 C310.469294,20.9771594 310.572344,22.0586667 311.506156,23.0151884 C312.190611,23.7013333 313.063356,24.0558841 314.059506,24.0558841 C315.054383,24.0558841 315.927128,23.7013333 316.611583,23.0151884 C317.513194,22.0916502 317.64035,21.0515975 317.648047,18.2466095 L317.648444,17.9392464 C317.648444,14.9026087 317.545394,13.8198261 316.611583,12.8633043 C315.927128,12.1771594 315.054383,11.8238841 314.059506,11.8238841 Z M424.861156,12.6413913 C424.05075,12.6413913 423.387922,12.9627826 422.941372,13.4537971 C422.385411,14.0953043 422.216206,14.8235362 422.216206,17.7313623 C422.216206,20.6404638 422.385411,21.3457391 422.941372,21.9872464 C423.387922,22.4795362 424.05075,22.8213333 424.861156,22.8213333 C425.671561,22.8213333 426.333117,22.4795362 426.760583,21.9872464 C427.314,21.3457391 427.507378,20.6404638 427.507378,17.7313623 C427.507378,14.8235362 427.314,14.0953043 426.760583,13.4537971 C426.333117,12.9627826 425.671561,12.6413913 424.861156,12.6413913 Z M439.650739,18.9506087 L436.556694,18.9506087 L436.556694,22.6925217 L439.650739,22.6925217 C440.994206,22.6925217 441.634133,21.838029 441.634133,20.8113623 C441.634133,19.7846957 440.994206,18.9506087 439.650739,18.9506087 Z M397.842972,14.6092754 L395.924461,20.1481739 L399.699144,20.1481739 L397.842972,14.6092754 Z M77.7734889,6.98898551 L70.9352944,6.98898551 L70.9352944,16.8309565 L77.7734889,16.8309565 C80.9604056,16.8309565 83.0481222,14.7903768 83.0481222,11.9106087 C83.0481222,9.03211594 80.9604056,6.98898551 77.7734889,6.98898551 Z M439.458633,12.7702029 L436.556694,12.7702029 L436.556694,16.2774493 L439.458633,16.2774493 C440.718133,16.2774493 441.4204,15.5708986 441.4204,14.5238261 C441.4204,13.4754783 440.718133,12.7702029 439.458633,12.7702029 Z" id="path-1"></path>
    </defs>
    <g id="**-2019-GUIDE-**" stroke="none" stroke-width="1" fill="none" fill-rule="evenodd">
        <g id="Slide" transform="translate(-50.000000, -1110.000000)">
            <g id="Lockups/Horizontal/Cornell-Tech" transform="translate(50.000000, 1110.000000)">
                <mask id="mask-2" fill="white">
                    <use xlink:href="#path-1"></use>
                </mask>
                <use id="Horizontal-Full" fill="#1C1B19" fill-rule="evenodd" xlink:href="#path-1"></use>
                <g id="Colors/CT-Primary-Black" mask="url(#mask-2)" fill="#000000" fill-rule="evenodd">
                    <rect id="Rectangle" x="0" y="0" width="458" height="88"></rect>
                </g>
            </g>
        </g>
    </g>
</svg>