<svg height="55" viewBox="0 0 56 55" width="56" xmlns="http://www.w3.org/2000/svg"><g fill="none" fill-rule="evenodd" transform="translate(0 -1)"><ellipse cx="28.025" cy="28.45" fill="#fdfaf4" rx="27.625" ry="27.45"/><g fill-rule="nonzero"><path d="m48.51 8.64c0 1.34205194-1.0879481 2.43-2.43 2.43s-2.43-1.08794806-2.43-2.43 1.0879481-2.43 2.43-2.43 2.43 1.08794806 2.43 2.43z" fill="#bbbdbf"/><path d="m12.65 44.13v.07l-.05 4.52.58.01-.04-5.12-3.45-.11z" fill="#b5e0f1"/><g fill="#231f20" transform="translate(5 13)"><path d="m.04 4.97h2.63v3h-2.63z"/><path d="m0 9.76h2.63v3h-2.63z"/><path d="m0 14.75h2.63v3h-2.63z"/><path d="m0 25.14h2.63v3h-2.63z"/><path d="m5.03.16h2.63v3h-2.63z"/><path d="m5.04 4.94h2.63v3h-2.63z"/><path d="m5 9.74h2.63v3.01h-2.63z"/><path d="m5 14.73h2.63v3h-2.63z"/><path d="m5.05 20.09h2.63v3h-2.63z"/><path d="m5 25.11h2.63v3h-2.63z"/><path d="m9.85.15h2.63v3.01h-2.63z"/><path d="m9.85 4.93h2.63v3.01h-2.63z"/><path d="m9.82 14.71h2.63v3h-2.63z"/><path d="m9.87 20.08h2.63v3.01h-2.63z"/><path d="m9.82 25.1h2.63v3h-2.63z"/><path d="m9.83 30.57h2.63v3h-2.63z"/><path d="m17.39 3.73h1.84v2.1h-1.84z"/><path d="m17.37 10.43h1.84v2.1h-1.84z"/><path d="m17.37 13.92h1.84v2.1h-1.84z"/><path d="m17.4 17.68h1.84v2.1h-1.84z"/><path d="m17.37 21.19h1.84v2.11h-1.84z"/><path d="m17.38 25.02h1.84v2.1h-1.84z"/><path d="m20.89 3.71h1.84v2.1h-1.84z"/><path d="m20.89 7.06h1.84v2.1h-1.84z"/><path d="m20.87 10.41h1.84v2.1h-1.84z"/><path d="m20.9 17.66h1.84v2.1h-1.84z"/><path d="m20.87 21.17h1.84v2.1h-1.84z"/><path d="m24.26 3.7h1.84v2.1h-1.84z"/><path d="m24.26 7.05h1.84v2.1h-1.84z"/><path d="m24.24 10.4h1.84v2.1h-1.84z"/><path d="m24.24 13.9h1.84v2.1h-1.84z"/><path d="m24.27 17.65h1.84v2.1h-1.84z"/><path d="m24.24 21.17h1.84v2.1h-1.84z"/><path d="m24.25 24.99h1.84v2.1h-1.84z"/><path d="m29.97 2.02h1.33v1.52h-1.33z"/><path d="m29.98 4.44h1.33v1.52h-1.33z"/><path d="m29.96 6.86h1.32v1.52h-1.32z"/><path d="m29.96 9.37h1.32v1.52h-1.32z"/><path d="m29.98 12.08h1.32v1.52h-1.32z"/><path d="m29.97 17.37h1.33v1.52h-1.33z"/><path d="m32.5 4.42h1.33v1.52h-1.33z"/><path d="m32.48 6.84h1.32v1.52h-1.32z"/><path d="m32.48 9.36h1.32v1.52h-1.32z"/><path d="m32.51 12.07h1.32v1.52h-1.32z"/><path d="m32.48 14.6h1.32v1.52h-1.32z"/><path d="m34.93 2h1.33v1.52h-1.33z"/><path d="m34.93 4.42h1.33v1.52h-1.33z"/><path d="m34.91 6.84h1.33v1.52h-1.33z"/><path d="m34.91 9.35h1.33v1.52h-1.33z"/><path d="m34.94 12.06h1.33v1.52h-1.33z"/><path d="m34.91 14.6h1.33v1.51h-1.33z"/><path d="m34.92 17.36h1.33v1.52h-1.33z"/><path d="m2.64 33.24v-2.64h-2.51z"/><path d="m4.61 35.69 2.8.94.07-5.36-2.87-.61zm2.55-1.62c.02657542.0025234.05103875.0155677.06794301.0362284.01690425.0206608.02484602.0472227.02205699.0737716 0 .0497056-.04029437.09-.09.09s-.09-.0402944-.09-.09c-.00278903-.0265489.00515274-.0531108.02205699-.0737716.01690426-.0206607.04136759-.033705.06794301-.0362284z"/></g><path d="m2.87 16.92c-3.40917846 7.2876722-3.40917846 15.7123278 0 23v-.57z" fill="#0093d0"/><path d="m55.67 28.9c-2.1222411 1.226653-4.0361005 2.7827186-5.67 4.61-.5113541.6209754-.9601947 1.2908868-1.34 2-.26.49-.66 1.23-2 3.23-2.2136214 3.4783927-4.6381583 6.8179752-7.26 10-2.9963903 3.585955-7.0907964 6.0847728-11.65 7.11h.25c15.0329769.0744089 27.348123-11.9202852 27.67-26.95z" fill="#0093d0"/><path d="m38.48 41.64c2.1169876-2.0308166 4.0979404-4.1988408 5.93-6.49 1.037301-1.3002064 2.1456573-2.5420996 3.32-3.72 1.84-1.72 6.72-3.48 7.94-3.9-.181544-5.8576345-2.2549584-11.4990055-5.91-16.08l-.58.15-.44 2.4-2.15-1.05-1.85 1.54-1-2.2h-2.39l.65-2.37-1.78-1.57 1.98-1.35-.38-2.35c-11.9882303-6.82924766-27.169589-3.85167662-35.69 7h13.28v26.35 11.25h-6.05c3.3911313 1.1732686 6.9349033 1.8469895 10.52 2 1.1464546.0138632 2.2897054-.1239993 3.4-.41 2.12-.58 5.62-3.92 8.72-6.84.86-.85 1.69-1.64 2.48-2.36zm-5.92-6.7v7h-4.41v-3.94h-2.87v3.91h-4.28v-7.91-18.46h11.56zm1.44-6.94v-13.84h8.27v13.19 5.65h-3.1v-2.81h-2v2.81h-3.12v-5z" fill="#0093d0"/><path d="m5.03 13.19h2.63v3h-2.63z" fill="#0093d0"/><path d="m5.05 33.12h2.63v3h-2.63z" fill="#0093d0"/><path d="m14.82 22.73h2.63v3h-2.63z" fill="#0093d0"/><path d="m22.39 20.07h1.84v2.1h-1.84z" fill="#0093d0"/><path d="m25.87 26.9h1.84v2.1h-1.84z" fill="#0093d0"/><path d="m34.96 27.62h1.32v1.52h-1.32z" fill="#0093d0"/><path d="m37.5 15.01h1.33v1.52h-1.33z" fill="#0093d0"/></g></g></svg>